<svg xmlns="http://www.w3.org/2000/svg" fill="none" viewBox="0 0 35.244 35.53299492385786" style="max-height: 500px" width="35.244" height="35.53299492385786">
<g clip-path="url(#clip0_11_73)">
<path fill="#41A762" d="M34.5276 19.3961L33.8573 19.2128C34.1478 17.94 34.2736 16.635 34.2316 15.33C34.1007 13.8341 33.8088 12.3567 33.361 10.9236L33.2565 10.5921L32.8822 10.6619C32.6617 10.7237 32.4379 10.7732 32.2118 10.8102C31.8596 9.55647 31.3226 8.36247 30.6187 7.26765C29.7675 6.03973 28.7932 4.90239 27.7109 3.87343L27.4497 3.64657L27.1885 3.87343C27.1885 3.87343 27.0057 4.05667 26.6662 4.35333C25.7326 3.45157 24.6669 2.69828 23.5059 2.11961C22.1671 1.48136 20.767 0.981423 19.3271 0.627548L18.9963 0.549019L18.8831 0.880587C18.8831 0.880587 18.8047 1.14235 18.7003 1.55245C17.4218 1.26144 16.1092 1.14985 14.8 1.22088C13.3246 1.34258 11.8658 1.61745 10.4471 2.04108L10.1076 2.15451L10.1859 2.48608C10.1859 2.48608 10.2556 2.74784 10.3339 3.15794C9.05802 3.51935 7.84528 4.07558 6.73837 4.80706C5.51612 5.66059 4.38167 6.63392 3.35177 7.71265L3.12542 7.97441L3.35177 8.23618L3.8393 8.75971C2.93437 9.7171 2.16935 10.7982 1.56706 11.9707C0.928017 13.3237 0.429168 14.7388 0.0783531 16.1938L0 16.5254L0.330824 16.6388L1.00118 16.8221C0.710218 18.0947 0.587284 19.4002 0.635531 20.7049C0.758978 22.1833 1.03319 23.6452 1.45389 25.0676L1.63671 25.3294L1.97624 25.2509C1.97624 25.2509 2.23742 25.1811 2.64659 25.1025C3.00805 26.3631 3.56002 27.5608 4.2833 28.6538C5.13394 29.8821 6.10832 31.0195 7.19108 32.048L7.45225 32.2749L7.71343 32.048C7.71343 32.048 7.89625 31.8648 8.22708 31.5594C9.18437 32.4639 10.2626 33.2304 11.4309 33.8368C12.7875 34.4939 14.2083 35.0085 15.6706 35.3725L16.0014 35.451L16.1146 35.1194C16.1146 35.1194 16.193 34.8576 16.3062 34.4475C17.3526 34.698 18.4254 34.821 19.5012 34.814H20.1716C21.6615 34.6943 23.1349 34.4194 24.5681 33.9938L24.9076 33.8804L24.8292 33.5488C24.8292 33.5488 24.7596 33.2871 24.6812 32.877C25.9352 32.512 27.1269 31.9589 28.2158 31.2366C29.4408 30.3798 30.5781 29.4036 31.6111 28.3223L31.8288 28.0605L31.6111 27.7987C31.6111 27.7987 31.4196 27.6155 31.1236 27.2752C32.016 26.3295 32.772 25.2634 33.3697 24.1078C34.0004 22.7429 34.4877 21.3159 34.8236 19.8498L34.902 19.5095L34.5276 19.3961ZM33.4481 15.3824C33.4968 16.6136 33.3826 17.8459 33.1085 19.0471C29.8849 18.198 26.5761 17.7151 23.2448 17.6074C23.1997 16.831 22.992 16.0729 22.6353 15.3824C25.8199 13.652 29.2103 12.3327 32.7255 11.4559C33.1154 12.7327 33.3579 14.0501 33.4481 15.3824ZM17.464 23.0608C16.4612 23.0608 15.4809 22.7625 14.6473 22.2037C13.8136 21.6449 13.1642 20.8508 12.7813 19.9219C12.3983 18.9929 12.299 17.971 12.4959 16.9854C12.6928 15.9998 13.1771 15.095 13.8874 14.3855C14.5978 13.676 15.5023 13.1937 16.4863 12.9998C17.4703 12.8058 18.4896 12.9089 19.4151 13.2959C20.3407 13.6829 21.1308 14.3365 21.6854 15.1739C22.2401 16.0113 22.5343 16.9949 22.5309 18C22.5263 19.3438 21.9904 20.631 21.0407 21.5796C20.091 22.5282 18.8048 23.0608 17.464 23.0608ZM27.4497 4.73725C28.3824 5.65323 29.2303 6.65202 29.9831 7.72137C30.6421 8.74409 31.155 9.85429 31.5067 11.0196C28.2945 11.9117 25.1952 13.1706 22.2697 14.7716C21.8549 14.129 21.3089 13.5819 20.6678 13.1661C22.5675 10.0698 24.8458 7.2236 27.4497 4.69363V4.73725ZM19.4751 1.42157C20.7515 1.73078 21.9895 2.18146 23.1664 2.76529C24.2647 3.33769 25.2785 4.06007 26.1786 4.91176C23.8428 7.27707 21.7969 9.91336 20.0845 12.7647C19.4007 12.4124 18.6498 12.2102 17.8819 12.1714C17.9697 8.53606 18.5048 4.9255 19.4751 1.42157ZM14.8 1.97127C16.0336 1.91194 17.2695 2.02054 18.4739 2.29412C17.6328 5.52871 17.1568 8.84775 17.0549 12.1888C16.2904 12.232 15.5433 12.434 14.861 12.7822C13.1313 9.59594 11.8176 6.20006 10.952 2.67804C12.2038 2.29701 13.4948 2.0599 14.8 1.97127ZM7.19108 5.40039C8.22841 4.73096 9.35753 4.21657 10.5428 3.87343C11.429 7.09021 12.6761 10.196 14.2603 13.1312C13.6236 13.5495 13.081 14.0963 12.6671 14.7367C9.58189 12.8418 6.7525 10.5574 4.24848 7.93951C5.12933 6.98324 6.11664 6.13131 7.19108 5.40039ZM2.30706 12.2325C2.87858 11.1362 3.59292 10.121 4.4313 9.21343C6.79256 11.5657 9.42252 13.6304 12.2666 15.3649C11.9193 16.0519 11.7177 16.8035 11.6746 17.5725C8.05374 17.4443 4.4601 16.8938 0.966355 15.9321C1.28992 14.6574 1.73903 13.4181 2.30706 12.2325ZM1.45389 20.6176C1.3999 19.3896 1.51117 18.1599 1.78471 16.9617C5.01205 17.8046 8.32363 18.2817 11.6572 18.3839C11.7002 19.1501 11.9018 19.8989 12.2492 20.5827C9.06675 22.3093 5.6754 23.6173 2.15906 24.4743C1.79573 23.2157 1.55949 21.9236 1.45389 20.6176ZM7.45225 31.2715C6.51959 30.3555 5.67165 29.3567 4.91883 28.2874C4.25594 27.2438 3.7403 26.1133 3.3866 24.928C6.59669 24.0376 9.69553 22.7848 12.6236 21.1935C13.0384 21.8361 13.5843 22.3832 14.2254 22.799C12.3422 25.9044 10.0655 28.7523 7.45225 31.2715ZM15.4182 34.5174C14.1463 34.2023 12.9118 33.7519 11.7356 33.1736C10.6368 32.618 9.61777 31.9166 8.7059 31.0882C11.0608 28.7265 13.1244 26.09 14.8523 23.2353C15.5346 23.5834 16.2817 23.7855 17.0462 23.8286C16.9632 27.456 16.413 31.0574 15.4094 34.5435L15.4182 34.5174ZM20.0758 33.9938C18.8525 34.0628 17.6255 33.9659 16.428 33.7059C17.2698 30.4717 17.7429 27.1522 17.8384 23.8112C18.6028 23.752 19.3468 23.5352 20.0236 23.1742C21.7513 26.3644 23.0649 29.7629 23.9325 33.2871C22.6731 33.6734 21.3729 33.9106 20.0584 33.9938H20.0758ZM27.7109 30.5647C26.6769 31.2289 25.5543 31.743 24.3765 32.0917C23.4864 28.8723 22.2304 25.766 20.633 22.8339C21.2741 22.4181 21.82 21.871 22.2349 21.2284C25.3186 23.1253 28.1478 25.4095 30.6535 28.0256C29.7659 28.9749 28.7794 29.8261 27.7109 30.5647ZM32.6297 23.7326C32.0591 24.8302 31.3318 25.8384 30.4707 26.7255C28.1132 24.3664 25.4828 22.2983 22.6353 20.5653C22.9855 19.882 23.1901 19.1332 23.2361 18.3665C26.8603 18.4819 30.458 19.0297 33.953 19.9981C33.6203 21.2812 33.1715 22.5312 32.6123 23.7326H32.6297Z"/>
<path fill="white" d="M85.7188 13.5541C85.7187 14.5601 85.6494 15.4873 85.6494 16.0473H85.7188C86.1528 15.3128 86.7718 14.7052 87.5127 14.2846C88.2535 13.8641 89.0911 13.6451 89.9424 13.6498C93.2668 13.6498 95.5439 16.3367 95.5439 20.5805C95.5438 24.8239 93.4145 27.519 89.8721 27.519C89.0521 27.5455 88.24 27.3498 87.5215 26.9525C86.8029 26.5553 86.2044 25.9708 85.7891 25.2611H85.7109V27.1254H83.4678V8.89883H85.7188V13.5541ZM139.931 8.50528C145.419 8.50528 148.848 12.5649 148.848 18.0072C148.848 23.4497 145.402 27.519 139.931 27.519C134.434 27.5189 131.039 23.4672 131.039 18.0072C131.039 12.5474 134.442 8.50529 139.931 8.50528ZM122.854 13.6498C123.709 13.6189 124.559 13.7861 125.338 14.1381C126.117 14.4902 126.806 15.018 127.349 15.6801C128.494 17.2445 129.064 19.1581 128.963 21.0961H118.894C119.068 23.6685 120.455 25.6282 123.003 25.6283C124.835 25.6283 126.083 24.7713 126.493 23.3803H128.719C128.134 25.8302 126.031 27.4926 123.003 27.4926C118.972 27.4924 116.572 24.3864 116.572 20.5629C116.572 16.7393 119.094 13.65 122.854 13.6498ZM171.081 13.6498C171.935 13.6176 172.786 13.784 173.565 14.1361C174.345 14.4883 175.032 15.017 175.574 15.6801C176.719 17.2446 177.29 19.158 177.188 21.0961H167.119C167.294 23.6686 168.69 25.6283 171.229 25.6283C173.061 25.6282 174.309 24.7712 174.719 23.3803H176.944C176.36 25.83 174.257 27.4924 171.229 27.4926C167.233 27.4926 164.799 24.3865 164.799 20.5629C164.799 16.7391 167.32 13.6498 171.081 13.6498ZM62.6055 22.9691C62.6056 24.6139 63.6617 25.5941 65.4678 25.5941C65.9244 25.5956 66.3763 25.5015 66.7949 25.3188C67.2136 25.1359 67.5904 24.8679 67.9004 24.5316C68.2104 24.1953 68.4478 23.7976 68.5967 23.3647C68.7456 22.9315 68.8031 22.4716 68.7656 22.015V14.0004H71.0342V27.1254H68.792V25.2699H68.7393C68.3216 25.9409 67.7367 26.4912 67.042 26.8656C66.3473 27.2401 65.5668 27.4256 64.7783 27.4047C62.0821 27.4047 60.3369 25.7772 60.3369 23.0297V14.0004H62.6055V22.9691ZM58.0859 11.1039H52.0996V27.1254H49.5869V11.1039H43.6279V8.89883H58.0859V11.1039ZM80.3789 13.7992C80.6774 13.7793 80.9768 13.83 81.252 13.9477V16.1H81.1729C80.8738 16.007 80.5609 15.966 80.248 15.9779C79.7347 15.9746 79.2261 16.0766 78.7539 16.2787C78.2816 16.4809 77.8557 16.7785 77.5029 17.1527C77.1502 17.527 76.8778 17.9703 76.7031 18.4545C76.5286 18.9385 76.455 19.4535 76.4873 19.9672V27.1254H74.1846V14.0004H76.4355L76.418 16.3451H76.4873C76.8308 15.5961 77.3789 14.9597 78.0674 14.5092C78.7558 14.0588 79.557 13.8129 80.3789 13.7992ZM100.229 27.1254H97.9609V14.0004H100.229V27.1254ZM109.837 13.6498C112.568 13.65 114.252 15.1905 114.252 17.9379V27.1254H112.009V18.182C112.009 16.5199 110.866 15.5571 109.121 15.557C108.654 15.5407 108.188 15.6219 107.754 15.7953C107.32 15.9688 106.926 16.2309 106.598 16.5648C106.27 16.8988 106.014 17.2977 105.848 17.7357C105.681 18.1737 105.608 18.6417 105.631 19.1098V27.1254H103.362V14.0004H105.604V15.8285H105.684C106.135 15.1427 106.753 14.5826 107.479 14.2016C108.206 13.8206 109.017 13.6307 109.837 13.6498ZM158.054 13.6498C160.785 13.6499 162.478 15.1905 162.478 17.9379V27.1254H160.227V18.182C160.226 16.5198 159.092 15.557 157.347 15.557C156.88 15.5407 156.414 15.6219 155.979 15.7953C155.545 15.9688 155.151 16.2309 154.823 16.5648C154.495 16.8987 154.241 17.2978 154.074 17.7357C153.908 18.1737 153.833 18.6416 153.856 19.1098V27.1254H151.588V14.0004H153.83L153.821 15.8285H153.9C154.352 15.1426 154.97 14.5826 155.696 14.2016C156.423 13.8205 157.234 13.6307 158.054 13.6498ZM89.6543 15.557C86.8711 15.5571 85.5968 17.7361 85.5967 20.6059C85.5967 23.4758 86.9407 25.6282 89.6279 25.6283C92.0449 25.6283 93.2227 23.4934 93.2227 20.6059C93.2226 17.7186 92.045 15.557 89.6543 15.557ZM139.931 10.6576C135.804 10.6576 133.578 13.8424 133.578 18.0072C133.578 22.1722 135.804 25.3139 139.931 25.3139C144.058 25.3139 146.292 22.1897 146.292 18.0072C146.292 13.8249 144.058 10.6576 139.931 10.6576ZM122.881 15.4174C120.508 15.4175 119.242 17.1329 118.972 19.4604H126.572C126.45 16.9316 125.149 15.4174 122.881 15.4174ZM171.106 15.4174C168.733 15.4176 167.494 17.133 167.232 19.4604H174.798C174.676 16.9316 173.375 15.4174 171.106 15.4174ZM100.282 11.5414H97.9092V8.91641H100.282V11.5414Z"/>
</g>
<defs>
<clipPath id="clip0_11_73">
<rect fill="white" height="35" width="178"/>
</clipPath>
</defs>
</svg>